<svg width="563" height="400" xmlns="http://www.w3.org/2000/svg">
 <!-- Created with Method Draw - http://github.com/duopixel/Method-Draw/ -->

 <g>
  <title>background</title>
  <rect fill="#fff" id="canvas_background" height="402" width="565" y="-1" x="-1"/>
  <g display="none" overflow="visible" y="0" x="0" height="100%" width="100%" id="canvasGrid">
   <rect fill="url(#gridpattern)" stroke-width="0" y="0" x="0" height="100%" width="100%"/>
  </g>
 </g>
 <g>
  <title>Layer 1</title>
  <style transform="matrix(0.12246937287575665,0,0,0.12246937287575665,0,0) " type="text/css">.st0{opacity:0.8;}
	.st1{fill:#0A2754;}
	.st2{fill:#059AFF;}
	.st3{opacity:0.4;fill:#059AFF;enable-background:new    ;}</style>
  <g stroke="null" id="svg_36">
   <g stroke="null" transform="matrix(1.4749784973434956,0,0,1.8628020365265725,-500.4516559119608,-572.9764823855223) " id="svg_34">
    <title stroke="null" transform="translate(-1.3850263357162476,1.6672250032424927) translate(0.6925131678581238,-1.6672250032424927) translate(-2.3842833042144775,-0.7184973955154419) translate(-4.768566608428955,-14.7056245803833) translate(-0.7947611212730408,0) translate(-12.716177940368652,-3.5013391971588135) translate(0,-0.7002678513526917) translate(13.51093864440918,2.1008036136627197) translate(-30.995683670043945,-2.8010714054107666) translate(44.506622314453125,15.405893325805664) translate(0,0.000003535941459631431) translate(0,-0.000026981637347489595) translate(0,0.000003535941459631431) translate(-0.00002818009306793101,0) translate(-31.790443420410156,-17.506696701049805) translate(-3.179044485092163,-6.30241060256958) translate(28.611400604248047,13.305088996887207) translate(-30.2009220123291,-18.20696449279785) translate(-1804.5328369140625,-1192.134765625) translate(0,1.8510736227035522) translate(-0.00024918539565987885,0) translate(3.698160409927368,0) translate(2177.43896484375,0) translate(0,1526.0614013671875) ">background</title>
    <rect stroke="null" x="344.710577" y="301.146603" width="383" height="216" id="svg_32" fill="none"/>
   </g>
   <g stroke="null" transform="matrix(1.4749784973434956,0,0,1.8628020365265725,-500.4516559119608,-572.9764823855223) " id="svg_35">
    <title stroke="null" transform="translate(-1.3850263357162476,1.6672250032424927) translate(0.6925131678581238,-1.6672250032424927) translate(-2.3842833042144775,-0.7184973955154419) translate(-4.768566608428955,-14.7056245803833) translate(-0.7947611212730408,0) translate(-12.716177940368652,-3.5013391971588135) translate(0,-0.7002678513526917) translate(-0.7947611212730408,0.7002678513526917) translate(-16.689983367919922,8.403214454650879) translate(0,0.7002678513526917) translate(-24.63759422302246,-16.806428909301758) translate(36.55900955200195,14.005356788635254) translate(13.51093864440918,2.1008036136627197) translate(-30.995683670043945,-2.8010714054107666) translate(44.506622314453125,15.405893325805664) translate(0,0.000003535941459631431) translate(0,-0.000026981637347489595) translate(0,0.000003535941459631431) translate(-0.00002818009306793101,0) translate(-31.790443420410156,-17.506696701049805) translate(-3.179044485092163,-6.30241060256958) translate(28.611400604248047,13.305088996887207) translate(-30.2009220123291,-18.20696449279785) translate(-1804.5328369140625,-1192.134765625) translate(0,1.8510736227035522) translate(-0.00024918539565987885,0) translate(3.698160409927368,0) translate(2177.43896484375,0) translate(0,1526.0614013671875) ">Layer 1</title>
    <g stroke="null" class="st0" id="svg_19">
     <g stroke="null" id="svg_29">
      <path stroke="null" class="st1" d="m354.547248,521.349281l-13.9,-13.9l0,-185l13.9,-13.9l96.6,0l6.3,6.3c0.1,0.1 0.2,0.2 0.4,0.2l248.3,0l13.9,13.9l0,38.8l-10.3,10.3c-0.1,0.1 -0.1,0.2 -0.1,0.4l0,129.1l-13.9,13.9l-341.2,0l0,-0.1z" id="svg_31"/>
      <path stroke="null" class="st2" d="m450.947248,309.149281l5.1,5.1l1.1,1.1c0.2,0.2 0.5,0.4 0.8,0.4l248.2,0l8.7,8.7l4.9,4.9l0,38.3l-10.1,10.1c-0.2,0.2 -0.3,0.4 -0.3,0.7l0,128.9l-11.4,11.4l-2.2,2.2l-341,0l-13.6,-13.7l0,-184.5l13.6,-13.6l96.2,0m0.4,-1l-97,0c-5.5,5.5 -8.6,8.6 -14.2,14.2l0,185.4c5.5,5.5 8.6,8.6 14.2,14.2l341.7,0c5.5,-5.5 8.6,-8.6 14.2,-14.2l0,-129.4c4.1,-4.1 6.3,-6.3 10.4,-10.4l0,-39.2c-5.5,-5.5 -8.6,-8.6 -14.2,-14.2l-248.6,0l0,0c-2.6,-2.4 -4,-3.9 -6.5,-6.4l0,0z" id="svg_30"/>
     </g>
     <g stroke="null" id="svg_26">
      <polygon stroke="null" class="st1" points="712.3473345041275,385.64925014972687 720.0473467111588,378.04927456378937 720.0473467111588,406.04927456378937 712.3473345041275,413.64925014972687 " id="svg_28"/>
      <path stroke="null" class="st2" d="m719.547248,379.249281l0,26.6l-6.7,6.7l0,-26.6l6.7,-6.7m1,-2.4l-8.7,8.7l0,29.4l8.7,-8.7l0,-29.4l0,0z" id="svg_27"/>
     </g>
     <g stroke="null" id="svg_23">
      <polygon stroke="null" class="st1" points="712.3473345041275,418.64925014972687 720.0473467111588,410.94917690753937 720.0473467111588,438.94917690753937 712.3473345041275,446.64925014972687 " id="svg_25"/>
      <path stroke="null" class="st2" d="m719.547248,412.149281l0,26.6l-6.7,6.7l0,-26.6l6.7,-6.7m1,-2.4l-8.7,8.7l0,29.4l8.7,-8.7l0,-29.4l0,0z" id="svg_24"/>
     </g>
     <g stroke="null" id="svg_20">
      <polygon stroke="null" class="st1" points="712.3473345041275,451.54927456378937 720.0473467111588,443.84920132160187 720.0473467111588,471.84920132160187 712.3473345041275,479.54927456378937 " id="svg_22"/>
      <path stroke="null" class="st2" d="m719.547248,445.049281l0,26.6l-6.7,6.7l0,-26.6l6.7,-6.7m1,-2.4l-8.7,8.7l0,29.4l8.7,-8.7l0,-29.4l0,0z" id="svg_21"/>
     </g>
    </g>
    <polygon stroke="null" class="st3" points="353.6472917795181,309.14925014972687 340.1472917795181,322.74922573566437 340.1472917795181,352.44917690753937 366.9473406076431,352.44917690753937 373.3472429513931,345.94929897785187 684.6474443674088,345.94929897785187 691.2472978830338,352.64925014972687 718.6474443674088,352.64925014972687 718.6474443674088,329.24922573566437 704.9474931955338,315.64925014972687 456.54716360569,315.64925014972687 449.947310090065,309.14925014972687 " id="svg_18"/>
   </g>
  </g>
 </g>
</svg>